<svg width="512" height="457" viewBox="0 0 512 457" fill="none" xmlns="http://www.w3.org/2000/svg">
<path d="M512 228.796C512 194.873 469.525 162.726 404.403 142.79C419.431 76.4068 412.752 23.5926 383.322 6.68373C376.538 2.71745 368.607 0.838688 359.945 0.838688V24.1145C364.745 24.1145 368.607 25.0539 371.842 26.8283C386.035 34.9696 392.192 65.9692 387.392 105.841C386.244 115.652 384.365 125.985 382.069 136.527C361.614 131.517 339.281 127.655 315.799 125.15C301.711 105.841 287.1 88.3057 272.385 72.9624C306.407 41.3365 338.342 24.0101 360.049 24.0101V0.734314C331.349 0.734314 293.779 21.192 255.791 56.6798C217.804 21.4007 180.233 1.15182 151.534 1.15182V24.4276C173.137 24.4276 205.176 41.6497 239.198 73.0668C224.587 88.41 209.976 105.841 196.096 125.15C172.51 127.655 150.177 131.517 129.722 136.632C127.322 126.194 125.547 116.07 124.295 106.363C119.39 66.4911 125.443 35.4915 139.532 27.2458C142.663 25.367 146.733 24.532 151.534 24.532V1.25619C142.767 1.25619 134.836 3.13496 127.948 7.10124C98.6221 24.0101 92.0473 76.7199 107.18 142.894C42.2666 162.934 0 194.978 0 228.796C0 262.718 42.4753 294.865 107.597 314.801C92.5691 381.184 99.2483 433.999 128.678 450.907C135.462 454.874 143.393 456.752 152.16 456.752C180.859 456.752 218.43 436.295 256.417 400.807C294.405 436.086 331.976 456.335 360.675 456.335C369.441 456.335 377.373 454.456 384.261 450.49C413.587 433.581 420.161 380.871 405.029 314.697C469.733 294.761 512 262.613 512 228.796ZM376.121 159.177C372.259 172.641 367.459 186.523 362.032 200.405C357.753 192.055 353.265 183.705 348.36 175.355C343.56 167.005 338.446 158.864 333.332 150.931C348.152 153.123 362.449 155.837 376.121 159.177ZM328.323 270.337C320.183 284.428 311.834 297.788 303.172 310.209C287.622 311.566 271.863 312.296 256 312.296C240.241 312.296 224.483 311.566 209.037 310.313C200.375 297.892 191.922 284.637 183.781 270.65C175.85 256.977 168.649 243.095 162.074 229.109C168.545 215.122 175.85 201.136 183.677 187.463C191.817 173.372 200.166 160.012 208.828 147.591C224.378 146.234 240.137 145.504 256 145.504C271.759 145.504 287.517 146.234 302.963 147.487C311.625 159.908 320.078 173.163 328.219 187.15C336.15 200.823 343.351 214.705 349.926 228.691C343.351 242.678 336.15 256.664 328.323 270.337ZM362.032 256.768C367.667 270.755 372.468 284.741 376.434 298.31C362.762 301.65 348.36 304.468 333.437 306.66C338.55 298.623 343.664 290.377 348.465 281.923C353.265 273.573 357.753 265.118 362.032 256.768ZM256.209 368.137C246.503 358.117 236.797 346.949 227.196 334.737C236.589 335.155 246.19 335.468 255.896 335.468C265.706 335.468 275.411 335.259 284.908 334.737C275.516 346.949 265.81 358.117 256.209 368.137ZM178.563 306.66C163.744 304.468 149.446 301.754 135.775 298.414C139.636 284.95 144.437 271.068 149.864 257.186C154.143 265.536 158.63 273.886 163.535 282.236C168.44 290.586 173.45 298.727 178.563 306.66ZM255.687 89.4538C265.393 99.4739 275.098 110.642 284.7 122.854C275.307 122.437 265.706 122.123 256 122.123C246.19 122.123 236.484 122.332 226.987 122.854C236.38 110.642 246.086 99.4739 255.687 89.4538ZM178.459 150.931C173.345 158.968 168.232 167.214 163.431 175.668C158.63 184.018 154.143 192.368 149.864 200.718C144.228 186.732 139.428 172.746 135.462 159.177C149.133 155.941 163.535 153.123 178.459 150.931ZM84.0114 281.61C47.0673 265.849 23.1684 245.183 23.1684 228.796C23.1684 212.409 47.0673 191.638 84.0114 175.981C92.9866 172.119 102.797 168.675 112.92 165.439C118.868 185.897 126.695 207.19 136.401 229.004C126.8 250.715 119.077 271.903 113.233 292.256C102.901 289.02 93.0909 285.472 84.0114 281.61ZM140.158 430.763C125.965 422.622 119.808 391.622 124.608 351.75C125.756 341.939 127.635 331.606 129.931 321.064C150.386 326.074 172.719 329.936 196.201 332.441C210.289 351.75 224.9 369.285 239.615 384.629C205.593 416.255 173.658 433.581 151.951 433.581C147.255 433.477 143.289 432.537 140.158 430.763ZM387.705 351.228C392.61 391.1 386.557 422.1 372.468 430.345C369.337 432.224 365.267 433.059 360.466 433.059C338.863 433.059 306.824 415.837 272.802 384.42C287.413 369.077 302.024 351.646 315.904 332.336C339.49 329.831 361.823 325.97 382.278 320.855C384.678 331.397 386.557 341.521 387.705 351.228ZM427.884 281.61C418.909 285.472 409.099 288.916 398.976 292.152C393.027 271.694 385.2 250.401 375.495 228.587C385.096 206.877 392.819 185.688 398.663 165.335C408.995 168.571 418.805 172.119 427.989 175.981C464.933 191.742 488.832 212.409 488.832 228.796C488.727 245.183 464.828 265.953 427.884 281.61Z" fill="#61DAFB"/>
<path d="M255.896 276.495C282.236 276.495 303.589 255.139 303.589 228.796C303.589 202.452 282.236 181.096 255.896 181.096C229.555 181.096 208.202 202.452 208.202 228.796C208.202 255.139 229.555 276.495 255.896 276.495Z" fill="#61DAFB"/>
</svg>
