<svg width="512" height="309" viewBox="0 0 512 309" fill="none" xmlns="http://www.w3.org/2000/svg">
<g clip-path="url(#clip0_105_12)">
<path d="M256 0.441895C187.734 0.441895 145.066 34.5759 128 102.842C153.6 68.7079 183.466 55.9079 217.6 64.4419C237.074 69.3099 250.994 83.4399 266.402 99.0779C291.502 124.556 320.55 154.042 384 154.042C452.266 154.042 494.934 119.908 512 51.6419C486.4 85.7759 456.534 98.5759 422.4 90.0419C402.926 85.1739 389.006 71.0439 373.598 55.4059C348.498 29.9279 319.45 0.441895 256 0.441895ZM128 154.042C59.734 154.042 17.066 188.176 0 256.442C25.6 222.308 55.466 209.508 89.6 218.042C109.074 222.91 122.994 237.04 138.402 252.678C163.502 278.156 192.55 307.642 256 307.642C324.266 307.642 366.934 273.508 384 205.242C358.4 239.376 328.534 252.176 294.4 243.642C274.926 238.774 261.006 224.644 245.598 209.006C220.498 183.528 191.45 154.042 128 154.042Z" fill="url(#paint0_linear_105_12)"/>
</g>
<defs>
<linearGradient id="paint0_linear_105_12" x1="-14.2234" y1="98.7459" x2="427.972" y2="353.708" gradientUnits="userSpaceOnUse">
<stop stop-color="#2298BD"/>
<stop offset="1" stop-color="#0ED7B5"/>
</linearGradient>
<clipPath id="clip0_105_12">
<rect width="512" height="308.019" fill="white" transform="translate(0 0.0322266)"/>
</clipPath>
</defs>
</svg>
